<svg xmlns="http://www.w3.org/2000/svg" xmlns:xlink="http://www.w3.org/1999/xlink" width="1920" zoomAndPan="magnify" viewBox="0 0 1440 809.999993" height="1080" preserveAspectRatio="xMidYMid meet" version="1.0"><defs><filter x="0%" y="0%" width="100%" height="100%" id="2afc590323"><feColorMatrix values="0 0 0 0 1 0 0 0 0 1 0 0 0 0 1 0 0 0 1 0" color-interpolation-filters="sRGB"/></filter><mask id="3ae3a548a7"><g filter="url(#2afc590323)"><rect x="-144" width="1728" fill="#000000" y="-80.999999" height="971.999992" fill-opacity="0.46"/></g></mask><clipPath id="738ecf0cd7"><path d="M 0.160156 101 L 274 101 L 274 357 L 0.160156 357 Z M 0.160156 101 " clip-rule="nonzero"/></clipPath><clipPath id="98417e8bac"><path d="M 345 0.121094 L 373 0.121094 L 373 23 L 345 23 Z M 345 0.121094 " clip-rule="nonzero"/></clipPath><clipPath id="1dbfc61d04"><path d="M 640 261.476562 L 670.425781 261.476562 L 670.425781 287.734375 L 640 287.734375 Z M 640 261.476562 " clip-rule="nonzero"/></clipPath><clipPath id="4cf0abaa6a"><path d="M 366.542969 616.738281 L 387.808594 616.738281 L 387.808594 654.007812 L 366.542969 654.007812 Z M 366.542969 616.738281 " clip-rule="nonzero"/></clipPath><clipPath id="b4d7100b83"><path d="M 483.648438 619.101562 L 504.128906 619.101562 L 504.128906 654.007812 L 483.648438 654.007812 Z M 483.648438 619.101562 " clip-rule="nonzero"/></clipPath><clipPath id="13786c351d"><rect x="0" width="671" y="0" height="655"/></clipPath></defs><g mask="url(#3ae3a548a7)"><g transform="matrix(1, 0, 0, 1, 386, 75)"><g clip-path="url(#13786c351d)"><g clip-path="url(#738ecf0cd7)"><path fill="#ffffff" d="M 15.898438 256.390625 L 78.585938 209.695312 C 78.585938 209.691406 78.589844 209.691406 78.59375 209.691406 C 78.824219 209.519531 101.976562 192.398438 115.824219 181.957031 C 115.851562 181.9375 115.871094 181.921875 115.898438 181.902344 C 125.453125 174.78125 146.390625 177.683594 153.667969 179.410156 C 155.445312 179.828125 157.320312 179.445312 158.78125 178.355469 L 165.972656 172.996094 L 207.613281 228.835938 L 200.832031 233.847656 C 199.066406 235.164062 198.136719 237.320312 198.386719 239.503906 L 202.835938 278.230469 L 192.570312 320.980469 C 190.667969 328.40625 187.113281 332.082031 182.015625 331.894531 C 179.339844 331.796875 176.863281 330.664062 175.039062 328.707031 C 173.292969 326.824219 172.347656 324.40625 172.351562 321.855469 L 177.414062 290.519531 C 177.417969 290.460938 177.429688 290.398438 177.4375 290.34375 L 179.332031 275.945312 C 179.777344 272.5625 177.398438 269.464844 174.019531 269.019531 C 171.925781 268.742188 169.941406 269.554688 168.621094 271.015625 C 168.035156 271.21875 167.460938 271.515625 166.933594 271.90625 C 166.929688 271.910156 166.925781 271.910156 166.925781 271.914062 L 72.542969 342.429688 C 68.914062 345.132812 63.75 344.378906 61.039062 340.742188 C 58.328125 337.101562 59.085938 331.9375 62.722656 329.226562 L 111.78125 292.683594 C 114.515625 290.648438 115.078125 286.785156 113.042969 284.050781 C 111.007812 281.320312 107.144531 280.753906 104.410156 282.789062 L 55.351562 319.328125 L 46.9375 325.601562 C 43.296875 328.308594 38.128906 327.554688 35.421875 323.917969 C 32.707031 320.28125 33.464844 315.117188 37.101562 312.40625 L 94.871094 269.378906 C 97.601562 267.339844 98.167969 263.476562 96.132812 260.742188 C 94.09375 258.011719 90.230469 257.445312 87.496094 259.480469 L 29.730469 302.507812 C 26.089844 305.214844 20.929688 304.464844 18.21875 300.824219 C 15.507812 297.1875 16.261719 292.019531 19.902344 289.3125 L 33.101562 279.480469 L 78.242188 245.859375 C 80.976562 243.820312 81.539062 239.960938 79.5 237.226562 C 77.46875 234.492188 73.601562 233.925781 70.867188 235.960938 L 25.726562 269.585938 C 22.089844 272.296875 16.925781 271.542969 14.214844 267.898438 C 11.503906 264.261719 12.257812 259.097656 15.898438 256.390625 Z M 172.402344 160.980469 L 190.628906 147.386719 L 239.234375 212.554688 L 221.007812 226.148438 Z M 10.742188 280.914062 C 3.21875 287.96875 2.019531 299.734375 8.320312 308.195312 C 11.667969 312.6875 16.511719 315.421875 21.652344 316.21875 C 20.945312 321.378906 22.179688 326.796875 25.523438 331.289062 C 30.6875 338.222656 39.414062 340.964844 47.300781 338.875 C 47.785156 342.125 49.046875 345.300781 51.140625 348.113281 C 57.917969 357.207031 70.832031 359.097656 79.921875 352.324219 L 165.21875 288.597656 L 165.210938 288.644531 L 160.105469 320.3125 C 160.0625 320.5625 160.039062 320.816406 160.027344 321.074219 C 159.8125 327.042969 161.933594 332.738281 166.003906 337.109375 C 170.070312 341.484375 175.601562 344.007812 181.570312 344.226562 C 186.5625 344.410156 190.992188 343.046875 194.671875 340.304688 C 199.25 336.894531 202.664062 331.347656 204.539062 323.984375 C 204.542969 323.960938 204.554688 323.933594 204.558594 323.902344 L 215.089844 280.050781 C 215.257812 279.347656 215.300781 278.625 215.21875 277.90625 L 211.054688 241.625 L 215 238.710938 C 215.445312 239.25 215.972656 239.710938 216.566406 240.066406 C 217.261719 240.484375 218.039062 240.769531 218.859375 240.890625 C 220.480469 241.121094 222.128906 240.707031 223.4375 239.730469 L 246.609375 222.441406 L 247.671875 223.867188 C 248.164062 224.527344 248.765625 225.0625 249.429688 225.464844 C 251.515625 226.71875 254.238281 226.671875 256.308594 225.125 L 270.9375 215.117188 C 273.667969 213.078125 274.230469 209.214844 272.191406 206.484375 C 270.152344 203.75 266.289062 203.1875 263.558594 205.226562 L 253.875 211.542969 L 252.824219 210.128906 C 252.820312 210.128906 252.816406 210.125 252.8125 210.121094 L 196.832031 135.0625 C 196.832031 135.058594 196.832031 135.058594 196.828125 135.058594 L 195.773438 133.640625 L 222.929688 113.050781 C 225.660156 111.015625 226.222656 107.148438 224.183594 104.417969 C 222.144531 101.683594 218.28125 101.121094 215.550781 103.15625 L 183.449219 127.4375 C 180.714844 129.476562 180.152344 133.339844 182.1875 136.070312 L 183.253906 137.492188 L 160.078125 154.773438 C 157.449219 156.738281 156.839844 160.386719 158.609375 163.097656 L 153.648438 166.789062 C 145.238281 165.152344 122.109375 161.886719 108.519531 172.007812 C 108.480469 172.042969 108.4375 172.070312 108.394531 172.101562 C 98.546875 179.527344 8.523438 246.496094 8.523438 246.496094 C -0.570312 253.269531 -2.457031 266.179688 4.320312 275.277344 C 6.09375 277.664062 8.296875 279.550781 10.742188 280.914062 " fill-opacity="1" fill-rule="nonzero"/></g><path fill="#ffffff" d="M 469.882812 76.5 L 448.21875 91.453125 C 447.152344 92.191406 445.929688 92.546875 444.722656 92.546875 C 442.765625 92.546875 440.839844 91.617188 439.644531 89.882812 C 437.710938 87.082031 438.414062 83.242188 441.214844 81.308594 L 462.875 66.355469 C 465.679688 64.421875 469.515625 65.125 471.453125 67.925781 C 473.386719 70.726562 472.679688 74.566406 469.882812 76.5 " fill-opacity="1" fill-rule="nonzero"/><g clip-path="url(#98417e8bac)"><path fill="#ffffff" d="M 369.582031 11.449219 L 355.574219 21.148438 C 354.503906 21.886719 353.28125 22.242188 352.070312 22.242188 C 350.117188 22.242188 348.195312 21.316406 346.996094 19.585938 C 345.058594 16.789062 345.757812 12.945312 348.558594 11.007812 L 362.5625 1.3125 C 365.363281 -0.625 369.203125 0.0742188 371.140625 2.871094 C 373.078125 5.671875 372.378906 9.511719 369.582031 11.449219 " fill-opacity="1" fill-rule="nonzero"/></g><path fill="#ffffff" d="M 471.492188 154.832031 L 424.535156 221.191406 L 405.972656 208.058594 L 452.933594 141.695312 Z M 439.519531 139.292969 L 399.277344 196.152344 L 392.414062 191.253906 C 390.617188 189.976562 388.28125 189.757812 386.28125 190.671875 L 350.824219 206.871094 L 306.996094 210.316406 C 299.34375 210.804688 294.75 208.558594 293.355469 203.652344 C 292.617188 201.082031 292.929688 198.375 294.230469 196.035156 C 295.476562 193.789062 297.488281 192.144531 299.914062 191.363281 L 331.28125 186.488281 C 331.339844 186.480469 331.402344 186.46875 331.457031 186.457031 L 345.734375 183.8125 C 349.089844 183.1875 351.296875 179.972656 350.679688 176.617188 C 350.296875 174.542969 348.910156 172.90625 347.117188 172.105469 C 346.742188 171.605469 346.28125 171.152344 345.746094 170.773438 C 345.742188 170.773438 345.738281 170.769531 345.734375 170.761719 L 249.507812 102.792969 C 245.8125 100.175781 244.933594 95.035156 247.558594 91.332031 C 250.179688 87.628906 255.324219 86.753906 259.03125 89.375 L 308.941406 124.738281 C 311.722656 126.707031 315.566406 126.054688 317.542969 123.273438 C 319.511719 120.492188 318.855469 116.644531 316.074219 114.671875 L 266.164062 79.304688 L 257.597656 73.242188 C 253.894531 70.613281 253.015625 65.46875 255.636719 61.769531 C 258.257812 58.0625 263.40625 57.1875 267.105469 59.8125 L 325.882812 101.453125 C 328.660156 103.421875 332.515625 102.765625 334.484375 99.988281 C 336.453125 97.207031 335.796875 93.355469 333.011719 91.382812 L 274.242188 49.742188 C 270.542969 47.117188 269.660156 41.972656 272.285156 38.273438 C 274.910156 34.570312 280.054688 33.691406 283.753906 36.316406 L 297.183594 45.832031 L 343.109375 78.371094 C 345.890625 80.34375 349.742188 79.6875 351.710938 76.902344 C 353.683594 74.125 353.023438 70.269531 350.242188 68.300781 L 304.320312 35.757812 C 300.613281 33.136719 299.738281 27.992188 302.363281 24.289062 C 304.984375 20.589844 310.128906 19.714844 313.828125 22.332031 L 377.609375 67.523438 C 377.609375 67.523438 377.613281 67.527344 377.617188 67.53125 C 377.851562 67.695312 401.285156 84.425781 415.496094 94.371094 C 415.523438 94.386719 415.546875 94.40625 415.570312 94.421875 C 425.296875 101.3125 429.003906 122.121094 429.613281 129.574219 C 429.765625 131.390625 430.707031 133.054688 432.199219 134.109375 Z M 522.726562 173.464844 C 524.699219 170.679688 524.039062 166.828125 521.257812 164.863281 L 488.246094 141.832031 C 485.464844 139.867188 481.613281 140.523438 479.644531 143.304688 L 478.621094 144.753906 L 455.023438 128.058594 C 452.347656 126.164062 448.6875 126.707031 446.65625 129.230469 L 441.609375 125.65625 C 440.570312 117.152344 436.53125 94.140625 422.703125 84.347656 C 422.65625 84.320312 422.617188 84.289062 422.574219 84.257812 C 412.46875 77.183594 320.960938 12.261719 320.960938 12.261719 C 311.710938 5.707031 298.847656 7.902344 292.289062 17.15625 C 290.566406 19.585938 289.457031 22.261719 288.910156 25.011719 C 279.875 20.03125 268.316406 22.527344 262.21875 31.136719 C 258.976562 35.710938 257.878906 41.160156 258.707031 46.296875 C 253.582031 47.21875 248.808594 50.0625 245.570312 54.636719 C 240.574219 61.6875 240.664062 70.832031 245.085938 77.691406 C 242.144531 79.152344 239.515625 81.335938 237.488281 84.195312 C 230.929688 93.449219 233.125 106.316406 242.378906 112.867188 L 329.34375 174.296875 L 329.292969 174.308594 L 297.601562 179.234375 C 297.347656 179.273438 297.097656 179.328125 296.851562 179.398438 C 291.109375 181.039062 286.347656 184.8125 283.445312 190.035156 C 280.539062 195.257812 279.851562 201.296875 281.488281 207.039062 C 282.855469 211.84375 285.523438 215.636719 289.261719 218.289062 C 293.925781 221.589844 300.253906 223.121094 307.835938 222.628906 C 307.863281 222.625 307.886719 222.625 307.921875 222.625 L 352.882812 219.085938 C 353.597656 219.03125 354.304688 218.851562 354.960938 218.550781 L 388.175781 203.371094 L 392.167969 206.230469 C 391.792969 206.820312 391.515625 207.464844 391.363281 208.136719 C 391.179688 208.925781 391.152344 209.753906 391.292969 210.570312 C 391.566406 212.183594 392.476562 213.625 393.808594 214.570312 L 417.40625 231.265625 L 416.378906 232.710938 C 415.90625 233.386719 415.582031 234.125 415.40625 234.882812 C 414.855469 237.25 415.746094 239.824219 417.855469 241.316406 L 431.894531 252.136719 C 434.671875 254.105469 438.523438 253.445312 440.492188 250.664062 C 442.460938 247.878906 441.800781 244.03125 439.019531 242.0625 L 430.019531 234.804688 L 431.035156 233.367188 C 431.039062 233.367188 431.042969 233.363281 431.046875 233.355469 L 485.128906 156.921875 C 485.132812 156.917969 485.132812 156.917969 485.132812 156.914062 L 486.152344 155.472656 L 514.125 174.9375 C 516.910156 176.90625 520.761719 176.25 522.726562 173.464844 " fill-opacity="1" fill-rule="nonzero"/><path fill="#ffffff" d="M 611.769531 372.730469 L 632.6875 388.710938 C 635.390625 390.777344 635.910156 394.648438 633.84375 397.355469 C 632.628906 398.9375 630.796875 399.773438 628.941406 399.773438 C 627.636719 399.773438 626.320312 399.363281 625.203125 398.507812 L 604.289062 382.527344 C 601.582031 380.460938 601.0625 376.59375 603.132812 373.886719 C 605.195312 371.1875 609.0625 370.664062 611.769531 372.730469 " fill-opacity="1" fill-rule="nonzero"/><g clip-path="url(#1dbfc61d04)"><path fill="#ffffff" d="M 649.996094 262.886719 L 668 276.605469 C 670.707031 278.664062 671.230469 282.535156 669.164062 285.242188 C 667.953125 286.835938 666.117188 287.667969 664.257812 287.667969 C 662.953125 287.667969 661.640625 287.257812 660.527344 286.410156 L 642.527344 272.695312 C 639.820312 270.628906 639.292969 266.761719 641.359375 264.050781 C 643.421875 261.347656 647.289062 260.824219 649.996094 262.886719 " fill-opacity="1" fill-rule="nonzero"/></g><path fill="#ffffff" d="M 558.09375 402.597656 L 551.335938 424.304688 L 473.714844 400.15625 L 480.464844 378.445312 Z M 558.898438 380.535156 L 556.234375 389.097656 L 489.722656 368.398438 L 492.261719 360.355469 C 492.917969 358.25 492.402344 355.960938 490.917969 354.34375 L 464.554688 325.625 L 447.730469 285.007812 C 444.90625 277.878906 445.621094 272.820312 449.855469 269.972656 C 452.078125 268.476562 454.746094 267.9375 457.371094 268.453125 C 459.890625 268.945312 462.078125 270.347656 463.570312 272.417969 L 477.898438 300.742188 C 477.925781 300.792969 477.953125 300.851562 477.984375 300.898438 L 484.910156 313.660156 C 486.542969 316.660156 490.285156 317.765625 493.28125 316.144531 C 495.136719 315.132812 496.265625 313.308594 496.472656 311.355469 C 496.832031 310.84375 497.121094 310.269531 497.316406 309.640625 C 497.316406 309.636719 497.316406 309.632812 497.320312 309.628906 L 532.226562 197.109375 C 533.574219 192.78125 538.195312 190.359375 542.527344 191.710938 C 546.859375 193.058594 549.28125 197.683594 547.933594 202.019531 L 529.722656 260.414062 C 528.707031 263.664062 530.523438 267.121094 533.777344 268.140625 C 537.03125 269.152344 540.488281 267.339844 541.503906 264.085938 L 559.714844 205.6875 L 562.839844 195.664062 C 564.191406 191.335938 568.8125 188.910156 573.140625 190.257812 C 577.472656 191.609375 579.898438 196.234375 578.550781 200.558594 L 557.105469 269.328125 C 556.09375 272.578125 557.90625 276.042969 561.15625 277.054688 C 564.414062 278.070312 567.871094 276.253906 568.886719 273 L 590.328125 204.234375 C 591.683594 199.90625 596.300781 197.480469 600.632812 198.832031 C 604.960938 200.183594 607.390625 204.804688 606.035156 209.136719 L 601.136719 224.84375 L 584.382812 278.582031 C 583.367188 281.835938 585.179688 285.296875 588.433594 286.308594 C 591.6875 287.320312 595.148438 285.503906 596.164062 282.253906 L 612.921875 228.519531 C 614.269531 224.1875 618.890625 221.761719 623.222656 223.113281 C 627.550781 224.464844 629.976562 229.089844 628.625 233.414062 L 605.359375 308.042969 C 605.359375 308.046875 605.355469 308.046875 605.355469 308.050781 C 605.269531 308.324219 596.601562 335.78125 591.535156 352.371094 C 591.523438 352.398438 591.515625 352.425781 591.511719 352.457031 C 587.960938 363.832031 569.320312 373.792969 562.414062 376.671875 C 560.734375 377.378906 559.441406 378.792969 558.898438 380.535156 Z M 557.175781 474.738281 L 568.871094 436.226562 C 569.886719 432.972656 568.070312 429.515625 564.816406 428.5 L 563.121094 427.976562 L 571.710938 400.371094 C 572.683594 397.242188 571.035156 393.929688 568.007812 392.777344 L 569.847656 386.875 C 577.617188 383.253906 598.25 372.300781 603.292969 356.125 C 603.304688 356.074219 603.324219 356.023438 603.335938 355.976562 C 606.941406 344.179688 640.410156 237.089844 640.410156 237.089844 C 643.785156 226.265625 637.722656 214.707031 626.894531 211.332031 C 624.054688 210.445312 621.164062 210.214844 618.378906 210.546875 C 620.324219 200.414062 614.382812 190.191406 604.304688 187.050781 C 598.957031 185.382812 593.4375 186.019531 588.804688 188.398438 C 586.34375 183.8125 582.160156 180.144531 576.816406 178.480469 C 568.5625 175.90625 559.890625 178.820312 554.738281 185.144531 C 552.4375 182.800781 549.546875 180.972656 546.203125 179.929688 C 535.371094 176.550781 523.816406 182.617188 520.441406 193.4375 L 488.894531 295.132812 L 488.871094 295.085938 L 474.390625 266.464844 C 474.273438 266.238281 474.144531 266.015625 474.003906 265.804688 C 470.667969 260.851562 465.605469 257.488281 459.746094 256.34375 C 453.878906 255.195312 447.921875 256.402344 442.964844 259.738281 C 438.824219 262.523438 436.039062 266.226562 434.671875 270.605469 C 432.972656 276.058594 433.472656 282.550781 436.28125 289.609375 C 436.292969 289.636719 436.300781 289.660156 436.316406 289.691406 L 453.570312 331.359375 C 453.847656 332.023438 454.234375 332.636719 454.726562 333.171875 L 479.425781 360.070312 L 477.941406 364.75 C 477.261719 364.574219 476.566406 364.511719 475.878906 364.574219 C 475.070312 364.640625 474.273438 364.871094 473.539062 365.257812 C 472.089844 366.019531 471.003906 367.324219 470.515625 368.886719 L 461.929688 396.488281 L 460.234375 395.960938 C 459.445312 395.71875 458.648438 395.636719 457.871094 395.703125 C 455.449219 395.910156 453.277344 397.550781 452.511719 400.019531 L 446.554688 416.714844 C 445.542969 419.96875 447.363281 423.425781 450.613281 424.4375 C 453.871094 425.449219 457.328125 423.632812 458.339844 420.382812 L 462.460938 409.578125 L 464.140625 410.101562 C 464.144531 410.101562 464.148438 410.105469 464.15625 410.105469 L 553.5625 437.921875 C 553.566406 437.921875 553.566406 437.921875 553.566406 437.921875 L 555.253906 438.453125 L 545.386719 471.066406 C 544.378906 474.324219 546.195312 477.78125 549.445312 478.792969 C 552.707031 479.808594 556.160156 477.988281 557.175781 474.738281 " fill-opacity="1" fill-rule="nonzero"/><g clip-path="url(#4cf0abaa6a)"><path fill="#ffffff" d="M 375.816406 620.964844 C 376.945312 617.757812 380.46875 616.066406 383.679688 617.199219 C 386.890625 618.328125 388.578125 621.84375 387.449219 625.058594 L 378.714844 649.886719 C 377.820312 652.421875 375.441406 654.007812 372.898438 654.007812 C 372.21875 654.007812 371.53125 653.894531 370.851562 653.65625 C 367.640625 652.527344 365.957031 649.007812 367.085938 645.796875 L 375.816406 620.964844 " fill-opacity="1" fill-rule="nonzero"/></g><g clip-path="url(#b4d7100b83)"><path fill="#ffffff" d="M 492.097656 623.390625 C 493.21875 620.179688 496.738281 618.488281 499.953125 619.613281 C 503.164062 620.738281 504.855469 624.253906 503.730469 627.46875 L 495.878906 649.878906 C 494.988281 652.417969 492.609375 654.007812 490.0625 654.007812 C 489.386719 654.007812 488.699219 653.894531 488.023438 653.660156 C 484.8125 652.53125 483.117188 649.015625 484.246094 645.804688 L 492.097656 623.390625 " fill-opacity="1" fill-rule="nonzero"/></g><path fill="#ffffff" d="M 318.929688 502.503906 L 341.664062 502.21875 L 342.679688 583.507812 L 319.945312 583.789062 Z M 354.078125 507.914062 L 362.511719 507.84375 C 364.714844 507.816406 366.734375 506.625 367.816406 504.710938 L 386.980469 470.761719 L 420.410156 442.210938 C 426.3125 437.320312 431.347656 436.4375 435.363281 439.585938 C 437.472656 441.234375 438.808594 443.605469 439.132812 446.261719 C 439.441406 448.8125 438.785156 451.324219 437.28125 453.382812 L 414.769531 475.765625 C 414.726562 475.804688 414.683594 475.851562 414.644531 475.894531 L 404.652344 486.425781 C 402.300781 488.902344 402.40625 492.804688 404.875 495.152344 C 406.40625 496.605469 408.492188 497.117188 410.414062 496.707031 C 411.011719 496.890625 411.648438 496.988281 412.304688 496.980469 C 412.308594 496.980469 412.3125 496.980469 412.316406 496.980469 L 530.121094 495.410156 C 534.648438 495.355469 538.378906 499 538.433594 503.539062 C 538.488281 508.070312 534.839844 511.808594 530.300781 511.859375 L 469.136719 512.589844 C 465.730469 512.628906 463.003906 515.421875 463.042969 518.832031 C 463.085938 522.238281 465.875 524.964844 469.285156 524.925781 L 530.453125 524.203125 L 540.945312 524.074219 C 545.484375 524.023438 549.222656 527.667969 549.277344 532.203125 C 549.332031 536.738281 545.683594 540.472656 541.148438 540.53125 L 469.121094 541.386719 C 465.710938 541.425781 462.980469 544.222656 463.023438 547.628906 C 463.0625 551.039062 465.859375 553.765625 469.269531 553.722656 L 541.292969 552.871094 C 545.828125 552.816406 549.5625 556.460938 549.613281 561 C 549.671875 565.535156 546.023438 569.269531 541.488281 569.320312 L 525.03125 569.515625 L 468.75 570.1875 C 465.339844 570.226562 462.609375 573.019531 462.652344 576.429688 C 462.691406 579.835938 465.492188 582.566406 468.898438 582.527344 L 525.179688 581.859375 C 529.71875 581.804688 533.449219 585.449219 533.5 589.988281 C 533.558594 594.523438 529.910156 598.257812 525.378906 598.3125 L 447.214844 599.242188 C 447.210938 599.242188 447.207031 599.242188 447.207031 599.242188 C 446.921875 599.242188 418.125 599.484375 400.78125 599.792969 C 400.75 599.792969 400.722656 599.792969 400.695312 599.792969 C 388.777344 599.9375 373.542969 585.28125 368.667969 579.609375 C 367.480469 578.226562 365.738281 577.4375 363.914062 577.457031 L 354.945312 577.566406 Z M 267.539062 598.832031 C 267.582031 602.242188 270.382812 604.96875 273.789062 604.925781 L 314.03125 604.152344 C 317.4375 604.109375 320.164062 601.3125 320.121094 597.902344 L 320.097656 596.132812 L 349.003906 595.769531 C 352.28125 595.726562 354.921875 593.136719 355.082031 589.902344 L 361.265625 589.828125 C 367.109375 596.097656 383.898438 612.335938 400.84375 612.136719 C 400.898438 612.128906 400.949219 612.136719 401 612.128906 C 413.335938 611.914062 525.523438 610.652344 525.523438 610.652344 C 536.863281 610.515625 545.976562 601.179688 545.84375 589.839844 C 545.808594 586.863281 545.136719 584.042969 543.960938 581.5 C 554.195312 580.214844 562.082031 571.40625 561.957031 560.851562 C 561.890625 555.25 559.574219 550.195312 555.886719 546.523438 C 559.492188 542.765625 561.679688 537.65625 561.613281 532.054688 C 561.511719 523.414062 556.058594 516.070312 548.453125 513.121094 C 549.972656 510.210938 550.816406 506.894531 550.773438 503.390625 C 550.640625 492.050781 541.304688 482.929688 529.964844 483.070312 L 423.5 484.484375 L 423.535156 484.453125 L 446.28125 461.835938 C 446.464844 461.65625 446.632812 461.464844 446.792969 461.261719 C 450.472656 456.5625 452.105469 450.707031 451.382812 444.777344 C 450.664062 438.84375 447.675781 433.550781 442.972656 429.871094 C 439.039062 426.789062 434.65625 425.285156 430.070312 425.339844 C 424.359375 425.410156 418.34375 427.890625 412.496094 432.746094 C 412.472656 432.761719 412.453125 432.777344 412.429688 432.796875 L 378.132812 462.089844 C 377.585938 462.554688 377.125 463.113281 376.769531 463.746094 L 358.8125 495.546875 L 353.90625 495.585938 C 353.863281 494.882812 353.707031 494.203125 353.4375 493.566406 C 353.121094 492.820312 352.65625 492.132812 352.0625 491.554688 C 350.890625 490.414062 349.3125 489.78125 347.679688 489.800781 L 318.773438 490.164062 L 318.753906 488.386719 C 318.738281 487.5625 318.570312 486.777344 318.265625 486.0625 C 317.320312 483.820312 315.085938 482.265625 312.503906 482.296875 L 294.789062 481.792969 C 291.378906 481.835938 288.652344 484.632812 288.695312 488.039062 C 288.738281 491.449219 291.535156 494.175781 294.941406 494.132812 L 306.488281 494.714844 L 306.507812 496.476562 C 306.511719 496.476562 306.507812 496.484375 306.507812 496.488281 L 307.683594 590.117188 C 307.683594 590.121094 307.683594 590.121094 307.683594 590.121094 L 307.703125 591.890625 L 273.632812 592.582031 C 270.226562 592.628906 267.5 595.421875 267.539062 598.832031 " fill-opacity="1" fill-rule="nonzero"/><path fill="#ffffff" d="M 52.359375 477 L 78.675781 477.636719 C 82.078125 477.714844 84.769531 480.542969 84.6875 483.945312 C 84.605469 487.296875 81.863281 489.960938 78.527344 489.960938 C 78.476562 489.960938 78.425781 489.960938 78.375 489.957031 L 52.0625 489.324219 C 48.660156 489.242188 45.96875 486.417969 46.046875 483.015625 C 46.132812 479.609375 48.949219 476.898438 52.359375 477 " fill-opacity="1" fill-rule="nonzero"/><path fill="#ffffff" d="M 91.9375 588.507812 L 112.296875 588.96875 C 115.703125 589.046875 118.398438 591.871094 118.320312 595.273438 C 118.242188 598.628906 115.5 601.296875 112.160156 601.296875 C 112.113281 601.296875 112.066406 601.292969 112.015625 601.292969 L 91.65625 600.828125 C 88.253906 600.753906 85.558594 597.929688 85.636719 594.527344 C 85.710938 591.125 88.566406 588.460938 91.9375 588.507812 " fill-opacity="1" fill-rule="nonzero"/><path fill="#ffffff" d="M 97.097656 412.683594 L 174.09375 386.597656 L 181.390625 408.128906 L 104.394531 434.21875 Z M 116.132812 457.730469 C 117.078125 456.171875 117.292969 454.273438 116.707031 452.542969 L 113.832031 444.050781 L 179.808594 421.699219 L 182.480469 429.699219 C 183.1875 431.785156 184.945312 433.335938 187.101562 433.773438 L 225.308594 441.507812 L 262.792969 464.484375 C 269.269531 468.585938 271.664062 473.101562 269.910156 477.894531 C 268.996094 480.40625 267.152344 482.410156 264.722656 483.539062 C 262.398438 484.621094 259.804688 484.773438 257.378906 483.980469 L 229.136719 469.484375 C 229.089844 469.457031 229.03125 469.429688 228.976562 469.40625 L 215.871094 463.152344 C 212.792969 461.6875 209.113281 462.992188 207.644531 466.066406 C 206.734375 467.972656 206.894531 470.113281 207.875 471.816406 C 207.882812 472.4375 207.988281 473.074219 208.199219 473.699219 C 208.203125 473.703125 208.203125 473.707031 208.203125 473.710938 L 246.101562 585.261719 C 247.550781 589.550781 245.238281 594.226562 240.941406 595.675781 C 236.644531 597.136719 231.964844 594.816406 230.511719 590.519531 L 210.917969 532.570312 C 209.824219 529.34375 206.328125 527.613281 203.097656 528.703125 C 199.871094 529.796875 198.136719 533.296875 199.226562 536.527344 L 218.820312 594.476562 L 222.183594 604.417969 C 223.636719 608.714844 221.324219 613.394531 217.027344 614.847656 C 212.730469 616.300781 208.050781 613.988281 206.597656 609.691406 L 183.527344 541.453125 C 182.433594 538.226562 178.929688 536.492188 175.703125 537.585938 C 172.476562 538.679688 170.742188 542.179688 171.835938 545.40625 L 194.90625 613.644531 C 196.355469 617.941406 194.046875 622.617188 189.746094 624.070312 C 185.449219 625.527344 180.769531 623.207031 179.320312 618.914062 L 174.046875 603.324219 L 156.019531 550.003906 C 154.929688 546.769531 151.425781 545.039062 148.199219 546.132812 C 144.96875 547.222656 143.238281 550.726562 144.328125 553.953125 L 162.355469 607.277344 C 163.8125 611.574219 161.496094 616.25 157.195312 617.703125 C 152.902344 619.160156 148.222656 616.84375 146.769531 612.546875 L 121.734375 538.496094 C 121.730469 538.496094 121.730469 538.492188 121.730469 538.488281 C 121.640625 538.21875 112.511719 510.90625 106.859375 494.507812 C 106.851562 494.480469 106.839844 494.453125 106.828125 494.425781 C 103.011719 483.136719 112.242188 464.121094 116.132812 457.730469 Z M 83.726562 417.214844 L 85.410156 416.644531 L 94.683594 444.023438 C 95.738281 447.125 99.015625 448.839844 102.140625 447.992188 L 104.121094 453.847656 C 99.96875 461.34375 89.710938 482.328125 95.140625 498.382812 C 95.160156 498.433594 95.171875 498.480469 95.191406 498.53125 C 99.210938 510.191406 135.078125 616.503906 135.078125 616.503906 C 138.710938 627.246094 150.40625 633.027344 161.152344 629.394531 C 163.972656 628.445312 166.445312 626.933594 168.503906 625.027344 C 172.886719 634.363281 183.703125 639.140625 193.699219 635.761719 C 199.007812 633.964844 203.101562 630.203125 205.449219 625.5625 C 210.136719 627.828125 215.671875 628.332031 220.976562 626.539062 C 229.167969 623.769531 234.46875 616.3125 234.921875 608.167969 C 238.160156 608.714844 241.574219 608.496094 244.894531 607.371094 C 255.636719 603.734375 261.421875 592.042969 257.789062 581.300781 L 223.542969 480.488281 L 223.585938 480.503906 L 252.125 495.148438 C 252.351562 495.265625 252.585938 495.371094 252.824219 495.457031 C 258.433594 497.507812 264.507812 497.25 269.921875 494.734375 C 275.34375 492.214844 279.453125 487.734375 281.503906 482.128906 C 283.21875 477.433594 283.289062 472.800781 281.824219 468.457031 C 279.992188 463.046875 275.773438 458.085938 269.351562 454.027344 C 269.328125 454.011719 269.304688 454 269.277344 453.980469 L 230.824219 430.414062 C 230.210938 430.039062 229.535156 429.773438 228.824219 429.628906 L 193.035156 422.382812 L 191.480469 417.726562 C 192.132812 417.46875 192.734375 417.109375 193.253906 416.65625 C 193.867188 416.125 194.378906 415.472656 194.746094 414.726562 C 195.46875 413.261719 195.582031 411.5625 195.058594 410.015625 L 185.78125 382.636719 L 187.460938 382.070312 C 188.242188 381.800781 188.9375 381.398438 189.523438 380.886719 C 191.363281 379.292969 192.15625 376.6875 191.324219 374.242188 L 186.328125 357.238281 C 185.234375 354.007812 181.734375 352.28125 178.507812 353.371094 C 175.273438 354.46875 173.546875 357.96875 174.640625 361.199219 L 177.65625 372.359375 L 175.988281 372.921875 C 175.988281 372.925781 175.980469 372.925781 175.976562 372.925781 L 87.292969 402.976562 C 87.289062 402.976562 87.289062 402.976562 87.289062 402.976562 L 85.613281 403.542969 L 74.425781 371.355469 C 73.328125 368.128906 69.828125 366.398438 66.597656 367.492188 C 63.367188 368.585938 61.640625 372.089844 62.734375 375.316406 L 75.90625 413.347656 C 77 416.578125 80.5 418.308594 83.726562 417.214844 " fill-opacity="1" fill-rule="nonzero"/><path fill="#ffffff" d="M 119.355469 158.082031 C 118.769531 158.257812 118.175781 158.34375 117.59375 158.34375 C 114.9375 158.34375 112.488281 156.613281 111.6875 153.941406 L 104.160156 128.71875 C 103.183594 125.457031 105.039062 122.023438 108.304688 121.046875 C 111.566406 120.078125 115 121.929688 115.972656 125.191406 L 123.503906 150.414062 C 124.476562 153.675781 122.621094 157.109375 119.355469 158.082031 " fill-opacity="1" fill-rule="nonzero"/><path fill="#ffffff" d="M 23.871094 224.476562 C 23.28125 224.652344 22.683594 224.734375 22.097656 224.734375 C 19.449219 224.734375 16.996094 223.011719 16.195312 220.339844 L 10.277344 200.601562 C 9.300781 197.339844 11.152344 193.902344 14.410156 192.925781 C 17.671875 191.949219 21.109375 193.800781 22.085938 197.0625 L 28.007812 216.796875 C 28.984375 220.058594 27.132812 223.496094 23.871094 224.476562 " fill-opacity="1" fill-rule="nonzero"/></g></g></g><path fill="#ffffff" d="M 226.203125 483.320312 C 200.210938 483.320312 176.792969 477.875 155.9375 467.011719 C 135.132812 456.074219 118.816406 440.867188 106.984375 421.34375 C 95.128906 401.773438 89.226562 379.613281 89.226562 354.859375 C 89.226562 330.0625 95.128906 307.898438 106.984375 288.375 C 118.816406 268.804688 135.132812 253.597656 155.9375 242.710938 C 176.792969 231.84375 200.210938 226.398438 226.203125 226.398438 C 250.054688 226.398438 271.339844 230.621094 290.035156 239.0625 C 308.773438 247.457031 324.230469 259.59375 336.394531 275.519531 L 284.082031 322.242188 C 268.917969 303.054688 251.015625 293.460938 230.425781 293.460938 C 213.074219 293.460938 199.132812 299.023438 188.574219 310.152344 C 178.0625 321.234375 172.832031 336.128906 172.832031 354.859375 C 172.832031 373.542969 178.0625 388.4375 188.574219 399.566406 C 199.132812 410.695312 213.074219 416.261719 230.425781 416.261719 C 251.015625 416.261719 268.917969 406.667969 284.082031 387.480469 L 336.394531 434.105469 C 324.230469 450.03125 308.773438 462.214844 290.035156 470.65625 C 271.339844 479.097656 250.054688 483.320312 226.203125 483.320312 Z M 226.203125 483.320312 " fill-opacity="1" fill-rule="nonzero"/><path fill="#ffffff" d="M 470.214844 282.140625 C 493.828125 282.140625 512.832031 289.3125 527.230469 303.628906 C 541.628906 317.902344 548.828125 339.414062 548.828125 368.195312 L 548.828125 477.660156 L 469.542969 477.660156 L 469.542969 381.820312 C 469.542969 359.898438 461.695312 348.914062 446.023438 348.914062 C 437.121094 348.914062 429.921875 352.03125 424.425781 358.21875 C 418.90625 364.359375 416.171875 374.121094 416.171875 387.480469 L 416.171875 477.660156 L 336.789062 477.660156 L 336.789062 217.285156 L 416.171875 217.285156 L 416.171875 301.136719 C 430.882812 288.472656 448.902344 282.140625 470.214844 282.140625 Z M 470.214844 282.140625 " fill-opacity="1" fill-rule="nonzero"/><path fill="#ffffff" d="M 663.675781 481.210938 C 642.363281 481.210938 623.214844 476.964844 606.273438 468.449219 C 589.308594 459.886719 576.035156 448.0625 566.4375 432.953125 C 556.839844 417.867188 552.039062 400.71875 552.039062 381.53125 C 552.039062 362.34375 556.839844 345.21875 566.4375 330.109375 C 576.035156 315.023438 589.308594 303.246094 606.273438 294.804688 C 623.214844 286.359375 642.363281 282.140625 663.675781 282.140625 C 685.222656 282.140625 704.492188 286.359375 721.457031 294.804688 C 738.402344 303.246094 751.621094 315.023438 761.101562 330.109375 C 770.554688 345.21875 775.308594 362.34375 775.308594 381.53125 C 775.308594 400.71875 770.554688 417.867188 761.101562 432.953125 C 751.621094 448.0625 738.402344 459.886719 721.457031 468.449219 C 704.492188 476.964844 685.222656 481.210938 663.675781 481.210938 Z M 663.675781 419.425781 C 672.816406 419.425781 680.304688 416.117188 686.136719 409.449219 C 692.015625 402.734375 694.964844 393.425781 694.964844 381.53125 C 694.964844 369.585938 692.015625 360.328125 686.136719 353.804688 C 680.304688 347.234375 672.816406 343.921875 663.675781 343.921875 C 654.507812 343.921875 647.019531 347.234375 641.210938 353.804688 C 635.382812 360.328125 632.476562 369.585938 632.476562 381.53125 C 632.476562 393.425781 635.382812 402.734375 641.210938 409.449219 C 647.019531 416.117188 654.507812 419.425781 663.675781 419.425781 Z M 663.675781 419.425781 " fill-opacity="1" fill-rule="nonzero"/><path fill="#ffffff" d="M 880.671875 481.210938 C 859.363281 481.210938 840.210938 476.964844 823.269531 468.449219 C 806.304688 459.886719 793.035156 448.0625 783.4375 432.953125 C 773.835938 417.867188 769.039062 400.71875 769.039062 381.53125 C 769.039062 362.34375 773.835938 345.21875 783.4375 330.109375 C 793.035156 315.023438 806.304688 303.246094 823.269531 294.804688 C 840.210938 286.359375 859.363281 282.140625 880.671875 282.140625 C 902.222656 282.140625 921.492188 286.359375 938.457031 294.804688 C 955.398438 303.246094 968.621094 315.023438 978.097656 330.109375 C 987.554688 345.21875 992.304688 362.34375 992.304688 381.53125 C 992.304688 400.71875 987.554688 417.867188 978.097656 432.953125 C 968.621094 448.0625 955.398438 459.886719 938.457031 468.449219 C 921.492188 476.964844 902.222656 481.210938 880.671875 481.210938 Z M 880.671875 419.425781 C 889.816406 419.425781 897.300781 416.117188 903.132812 409.449219 C 909.011719 402.734375 911.964844 393.425781 911.964844 381.53125 C 911.964844 369.585938 909.011719 360.328125 903.132812 353.804688 C 897.300781 347.234375 889.816406 343.921875 880.671875 343.921875 C 871.503906 343.921875 864.019531 347.234375 858.210938 353.804688 C 852.378906 360.328125 849.476562 369.585938 849.476562 381.53125 C 849.476562 393.425781 852.378906 402.734375 858.210938 409.449219 C 864.019531 416.117188 871.503906 419.425781 880.671875 419.425781 Z M 880.671875 419.425781 " fill-opacity="1" fill-rule="nonzero"/><path fill="#ffffff" d="M 1071.367188 481.210938 C 1054.980469 481.210938 1038.828125 479.433594 1022.894531 475.933594 C 1006.960938 472.433594 994.097656 467.851562 984.308594 462.214844 L 1006 409.929688 C 1014.878906 415.300781 1025.414062 419.523438 1037.582031 422.59375 C 1049.796875 425.613281 1061.625 427.101562 1073.097656 427.101562 C 1082.238281 427.101562 1088.597656 426.382812 1092.199219 424.894531 C 1095.84375 423.359375 1097.667969 421.058594 1097.667969 417.988281 C 1097.667969 414.988281 1095.367188 412.902344 1090.757812 411.75 C 1086.199219 410.550781 1078.785156 409.351562 1068.488281 408.203125 C 1052.796875 406.28125 1039.453125 403.882812 1028.460938 401.007812 C 1017.519531 398.082031 1007.871094 392.421875 999.570312 384.027344 C 991.242188 375.582031 987.089844 363.542969 987.089844 347.855469 C 987.089844 335.457031 990.835938 324.328125 998.320312 314.472656 C 1005.808594 304.636719 1016.96875 296.792969 1031.820312 290.964844 C 1046.652344 285.089844 1064.503906 282.140625 1085.382812 282.140625 C 1099.902344 282.140625 1114.105469 283.53125 1128 286.265625 C 1141.945312 288.953125 1153.847656 292.859375 1163.710938 297.96875 L 1141.917969 350.253906 C 1125.074219 340.925781 1106.597656 336.25 1086.4375 336.25 C 1069.089844 336.25 1060.425781 339.292969 1060.425781 345.363281 C 1060.425781 348.382812 1062.753906 350.542969 1067.433594 351.886719 C 1072.160156 353.179688 1079.550781 354.378906 1089.605469 355.53125 C 1105.277344 357.402344 1118.546875 359.847656 1129.441406 362.917969 C 1140.3125 365.941406 1149.910156 371.648438 1158.238281 380.09375 C 1166.539062 388.535156 1170.714844 400.597656 1170.714844 416.261719 C 1170.714844 428.15625 1166.972656 439.046875 1159.484375 448.878906 C 1152 458.738281 1140.769531 466.605469 1125.792969 472.480469 C 1110.820312 478.285156 1092.679688 481.210938 1071.367188 481.210938 Z M 1071.367188 481.210938 " fill-opacity="1" fill-rule="nonzero"/><path fill="#ffffff" d="M 1377.886719 381.53125 C 1377.886719 382.683594 1377.527344 388.894531 1376.832031 400.144531 L 1243.410156 400.144531 C 1246.21875 407.386719 1250.894531 412.949219 1257.421875 416.835938 C 1264 420.671875 1272.207031 422.59375 1281.996094 422.59375 C 1290.445312 422.59375 1297.5 421.535156 1303.210938 419.425781 C 1308.96875 417.316406 1315.230469 413.671875 1322.023438 408.488281 L 1363.492188 450.316406 C 1344.722656 470.921875 1316.769531 481.210938 1279.597656 481.210938 C 1256.367188 481.210938 1235.96875 476.964844 1218.453125 468.449219 C 1200.910156 459.886719 1187.351562 447.992188 1177.753906 432.761719 C 1168.15625 417.554688 1163.355469 400.480469 1163.355469 381.53125 C 1163.355469 362.34375 1168.082031 345.21875 1177.5625 330.109375 C 1187.015625 315.023438 1200.023438 303.246094 1216.53125 294.804688 C 1233.042969 286.359375 1251.59375 282.140625 1272.207031 282.140625 C 1291.59375 282.140625 1309.304688 286.023438 1325.382812 293.75 C 1341.4375 301.496094 1354.203125 312.839844 1363.683594 327.804688 C 1373.136719 342.773438 1377.886719 360.6875 1377.886719 381.53125 Z M 1272.878906 336.25 C 1264.671875 336.25 1257.902344 338.503906 1252.527344 342.964844 C 1247.152344 347.378906 1243.625 353.683594 1241.96875 361.863281 L 1303.785156 361.863281 C 1302.105469 353.878906 1298.601562 347.617188 1293.226562 343.058594 C 1287.851562 338.527344 1281.0625 336.25 1272.878906 336.25 Z M 1272.878906 336.25 " fill-opacity="1" fill-rule="nonzero"/></svg>