<svg xmlns="http://www.w3.org/2000/svg" xmlns:xlink="http://www.w3.org/1999/xlink" width="500" zoomAndPan="magnify" viewBox="0 0 375 374.999991" height="500" preserveAspectRatio="xMidYMid meet" version="1.0"><defs><g/><clipPath id="77f7f3420f"><path d="M 0 0 L 375 0 L 375 188.304688 L 0 188.304688 Z M 0 0 " clip-rule="nonzero"/></clipPath><clipPath id="4a133d54f1"><path d="M 0.00390625 0.800781 L 188.304688 0.800781 L 188.304688 375 L 0.00390625 375 Z M 0.00390625 0.800781 " clip-rule="nonzero"/></clipPath><clipPath id="031999a114"><path d="M 113.992188 119.589844 L 262.242188 119.589844 L 262.242188 267.839844 L 113.992188 267.839844 Z M 113.992188 119.589844 " clip-rule="nonzero"/></clipPath><clipPath id="5e443bba35"><path d="M 188.117188 119.589844 C 147.179688 119.589844 113.992188 152.777344 113.992188 193.714844 C 113.992188 234.652344 147.179688 267.839844 188.117188 267.839844 C 229.054688 267.839844 262.242188 234.652344 262.242188 193.714844 C 262.242188 152.777344 229.054688 119.589844 188.117188 119.589844 Z M 188.117188 119.589844 " clip-rule="nonzero"/></clipPath></defs><rect x="-37.5" width="450" fill="#ffffff" y="-37.499999" height="449.999989" fill-opacity="1"/><rect x="-37.5" width="450" fill="#03254d" y="-37.499999" height="449.999989" fill-opacity="1"/><g clip-path="url(#77f7f3420f)"><path fill="#e30858" d="M 0 0 L 375.132812 0 L 375.132812 188.304688 L 0 188.304688 Z M 0 0 " fill-opacity="1" fill-rule="nonzero"/></g><g clip-path="url(#4a133d54f1)"><path fill="#0fc0df" d="M 0.00390625 375.800781 L 0.00390625 0.664062 L 188.304688 0.664062 L 188.304688 375.800781 Z M 0.00390625 375.800781 " fill-opacity="1" fill-rule="nonzero"/></g><g clip-path="url(#031999a114)"><g clip-path="url(#5e443bba35)"><path fill="#03254d" d="M 113.992188 119.589844 L 262.242188 119.589844 L 262.242188 267.839844 L 113.992188 267.839844 Z M 113.992188 119.589844 " fill-opacity="1" fill-rule="nonzero"/></g></g><g fill="#ffffff" fill-opacity="1"><g transform="translate(40.201712, 317.302854)"><g><path d="M 151.875 5.796875 C 125.050781 5.796875 100.882812 0.179688 79.375 -11.046875 C 57.875 -22.285156 41.019531 -37.992188 28.8125 -58.171875 C 16.613281 -78.359375 10.515625 -101.257812 10.515625 -126.875 C 10.515625 -152.488281 16.613281 -175.382812 28.8125 -195.5625 C 41.019531 -215.738281 57.875 -231.441406 79.375 -242.671875 C 100.882812 -253.910156 125.050781 -259.53125 151.875 -259.53125 C 176.53125 -259.53125 198.523438 -255.179688 217.859375 -246.484375 C 237.191406 -237.785156 253.140625 -225.222656 265.703125 -208.796875 L 211.6875 -160.578125 C 195.976562 -180.390625 177.492188 -190.296875 156.234375 -190.296875 C 138.347656 -190.296875 123.96875 -184.554688 113.09375 -173.078125 C 102.21875 -161.609375 96.78125 -146.207031 96.78125 -126.875 C 96.78125 -107.539062 102.21875 -92.132812 113.09375 -80.65625 C 123.96875 -69.175781 138.347656 -63.4375 156.234375 -63.4375 C 177.492188 -63.4375 195.976562 -73.34375 211.6875 -93.15625 L 265.703125 -44.953125 C 253.140625 -28.515625 237.191406 -15.945312 217.859375 -7.25 C 198.523438 1.445312 176.53125 5.796875 151.875 5.796875 Z M 151.875 5.796875 "/></g></g></g></svg>