<svg xmlns="http://www.w3.org/2000/svg" xmlns:xlink="http://www.w3.org/1999/xlink" width="300" zoomAndPan="magnify" viewBox="0 0 224.87999 74.999997" height="100" preserveAspectRatio="xMidYMid meet" version="1.0"><defs><g/></defs><g fill="#ffffff" fill-opacity="1"><g transform="translate(3.419868, 56.747071)"><g><path d="M 23.953125 0.921875 C 19.722656 0.921875 15.910156 0.0351562 12.515625 -1.734375 C 9.128906 -3.515625 6.472656 -5.992188 4.546875 -9.171875 C 2.617188 -12.359375 1.65625 -15.96875 1.65625 -20 C 1.65625 -24.039062 2.617188 -27.648438 4.546875 -30.828125 C 6.472656 -34.015625 9.128906 -36.492188 12.515625 -38.265625 C 15.910156 -40.035156 19.722656 -40.921875 23.953125 -40.921875 C 27.835938 -40.921875 31.300781 -40.234375 34.34375 -38.859375 C 37.394531 -37.492188 39.910156 -35.515625 41.890625 -32.921875 L 33.375 -25.3125 C 30.90625 -28.4375 27.992188 -30 24.640625 -30 C 21.816406 -30 19.546875 -29.09375 17.828125 -27.28125 C 16.117188 -25.476562 15.265625 -23.050781 15.265625 -20 C 15.265625 -16.957031 16.117188 -14.53125 17.828125 -12.71875 C 19.546875 -10.90625 21.816406 -10 24.640625 -10 C 27.992188 -10 30.90625 -11.5625 33.375 -14.6875 L 41.890625 -7.09375 C 39.910156 -4.5 37.394531 -2.515625 34.34375 -1.140625 C 31.300781 0.234375 27.835938 0.921875 23.953125 0.921875 Z M 23.953125 0.921875 "/></g></g></g><g fill="#ffffff" fill-opacity="1"><g transform="translate(42.515291, 56.747071)"><g><path d="M 24.578125 -31.84375 C 28.421875 -31.84375 31.515625 -30.675781 33.859375 -28.34375 C 36.203125 -26.019531 37.375 -22.515625 37.375 -17.828125 L 37.375 0 L 24.46875 0 L 24.46875 -15.609375 C 24.46875 -19.179688 23.191406 -20.96875 20.640625 -20.96875 C 19.191406 -20.96875 18.019531 -20.460938 17.125 -19.453125 C 16.226562 -18.453125 15.78125 -16.863281 15.78125 -14.6875 L 15.78125 0 L 2.859375 0 L 2.859375 -42.40625 L 15.78125 -42.40625 L 15.78125 -28.75 C 18.175781 -30.8125 21.109375 -31.84375 24.578125 -31.84375 Z M 24.578125 -31.84375 "/></g></g></g><g fill="#ffffff" fill-opacity="1"><g transform="translate(79.210122, 56.747071)"><g><path d="M 19.375 0.578125 C 15.90625 0.578125 12.789062 -0.113281 10.03125 -1.5 C 7.269531 -2.894531 5.109375 -4.820312 3.546875 -7.28125 C 1.984375 -9.738281 1.203125 -12.53125 1.203125 -15.65625 C 1.203125 -18.78125 1.984375 -21.570312 3.546875 -24.03125 C 5.109375 -26.488281 7.269531 -28.40625 10.03125 -29.78125 C 12.789062 -31.15625 15.90625 -31.84375 19.375 -31.84375 C 22.882812 -31.84375 26.019531 -31.15625 28.78125 -29.78125 C 31.539062 -28.40625 33.691406 -26.488281 35.234375 -24.03125 C 36.773438 -21.570312 37.546875 -18.78125 37.546875 -15.65625 C 37.546875 -12.53125 36.773438 -9.738281 35.234375 -7.28125 C 33.691406 -4.820312 31.539062 -2.894531 28.78125 -1.5 C 26.019531 -0.113281 22.882812 0.578125 19.375 0.578125 Z M 19.375 -9.484375 C 20.863281 -9.484375 22.082031 -10.023438 23.03125 -11.109375 C 23.988281 -12.203125 24.46875 -13.71875 24.46875 -15.65625 C 24.46875 -17.601562 23.988281 -19.109375 23.03125 -20.171875 C 22.082031 -21.242188 20.863281 -21.78125 19.375 -21.78125 C 17.882812 -21.78125 16.664062 -21.242188 15.71875 -20.171875 C 14.769531 -19.109375 14.296875 -17.601562 14.296875 -15.65625 C 14.296875 -13.71875 14.769531 -12.203125 15.71875 -11.109375 C 16.664062 -10.023438 17.882812 -9.484375 19.375 -9.484375 Z M 19.375 -9.484375 "/></g></g></g><g fill="#ffffff" fill-opacity="1"><g transform="translate(114.533189, 56.747071)"><g><path d="M 19.375 0.578125 C 15.90625 0.578125 12.789062 -0.113281 10.03125 -1.5 C 7.269531 -2.894531 5.109375 -4.820312 3.546875 -7.28125 C 1.984375 -9.738281 1.203125 -12.53125 1.203125 -15.65625 C 1.203125 -18.78125 1.984375 -21.570312 3.546875 -24.03125 C 5.109375 -26.488281 7.269531 -28.40625 10.03125 -29.78125 C 12.789062 -31.15625 15.90625 -31.84375 19.375 -31.84375 C 22.882812 -31.84375 26.019531 -31.15625 28.78125 -29.78125 C 31.539062 -28.40625 33.691406 -26.488281 35.234375 -24.03125 C 36.773438 -21.570312 37.546875 -18.78125 37.546875 -15.65625 C 37.546875 -12.53125 36.773438 -9.738281 35.234375 -7.28125 C 33.691406 -4.820312 31.539062 -2.894531 28.78125 -1.5 C 26.019531 -0.113281 22.882812 0.578125 19.375 0.578125 Z M 19.375 -9.484375 C 20.863281 -9.484375 22.082031 -10.023438 23.03125 -11.109375 C 23.988281 -12.203125 24.46875 -13.71875 24.46875 -15.65625 C 24.46875 -17.601562 23.988281 -19.109375 23.03125 -20.171875 C 22.082031 -21.242188 20.863281 -21.78125 19.375 -21.78125 C 17.882812 -21.78125 16.664062 -21.242188 15.71875 -20.171875 C 14.769531 -19.109375 14.296875 -17.601562 14.296875 -15.65625 C 14.296875 -13.71875 14.769531 -12.203125 15.71875 -11.109375 C 16.664062 -10.023438 17.882812 -9.484375 19.375 -9.484375 Z M 19.375 -9.484375 "/></g></g></g><g fill="#ffffff" fill-opacity="1"><g transform="translate(149.856256, 56.747071)"><g><path d="M 15.09375 0.578125 C 12.425781 0.578125 9.796875 0.289062 7.203125 -0.28125 C 4.609375 -0.851562 2.515625 -1.597656 0.921875 -2.515625 L 4.453125 -11.03125 C 5.898438 -10.15625 7.613281 -9.46875 9.59375 -8.96875 C 11.582031 -8.476562 13.507812 -8.234375 15.375 -8.234375 C 16.863281 -8.234375 17.898438 -8.351562 18.484375 -8.59375 C 19.078125 -8.84375 19.375 -9.21875 19.375 -9.71875 C 19.375 -10.207031 19 -10.546875 18.25 -10.734375 C 17.507812 -10.929688 16.300781 -11.125 14.625 -11.3125 C 12.070312 -11.625 9.898438 -12.015625 8.109375 -12.484375 C 6.328125 -12.960938 4.757812 -13.882812 3.40625 -15.25 C 2.050781 -16.625 1.375 -18.585938 1.375 -21.140625 C 1.375 -23.160156 1.984375 -24.972656 3.203125 -26.578125 C 4.421875 -28.179688 6.238281 -29.457031 8.65625 -30.40625 C 11.070312 -31.363281 13.976562 -31.84375 17.375 -31.84375 C 19.738281 -31.84375 22.050781 -31.617188 24.3125 -31.171875 C 26.582031 -30.734375 28.519531 -30.097656 30.125 -29.265625 L 26.578125 -20.75 C 23.835938 -22.269531 20.828125 -23.03125 17.546875 -23.03125 C 14.722656 -23.03125 13.3125 -22.535156 13.3125 -21.546875 C 13.3125 -21.054688 13.691406 -20.703125 14.453125 -20.484375 C 15.222656 -20.273438 16.425781 -20.078125 18.0625 -19.890625 C 20.613281 -19.585938 22.773438 -19.1875 24.546875 -18.6875 C 26.316406 -18.195312 27.878906 -17.265625 29.234375 -15.890625 C 30.585938 -14.515625 31.265625 -12.550781 31.265625 -10 C 31.265625 -8.0625 30.65625 -6.289062 29.4375 -4.6875 C 28.21875 -3.082031 26.390625 -1.800781 23.953125 -0.84375 C 21.515625 0.101562 18.5625 0.578125 15.09375 0.578125 Z M 15.09375 0.578125 "/></g></g></g><g fill="#ffffff" fill-opacity="1"><g transform="translate(178.720566, 56.747071)"><g><path d="M 36.125 -15.65625 C 36.125 -15.46875 36.066406 -14.457031 35.953125 -12.625 L 14.234375 -12.625 C 14.691406 -11.445312 15.453125 -10.539062 16.515625 -9.90625 C 17.585938 -9.28125 18.921875 -8.96875 20.515625 -8.96875 C 21.890625 -8.96875 23.039062 -9.140625 23.96875 -9.484375 C 24.90625 -9.828125 25.925781 -10.421875 27.03125 -11.265625 L 33.78125 -4.453125 C 30.726562 -1.097656 26.175781 0.578125 20.125 0.578125 C 16.34375 0.578125 13.023438 -0.113281 10.171875 -1.5 C 7.316406 -2.894531 5.109375 -4.832031 3.546875 -7.3125 C 1.984375 -9.789062 1.203125 -12.570312 1.203125 -15.65625 C 1.203125 -18.78125 1.972656 -21.570312 3.515625 -24.03125 C 5.054688 -26.488281 7.171875 -28.40625 9.859375 -29.78125 C 12.546875 -31.15625 15.566406 -31.84375 18.921875 -31.84375 C 22.078125 -31.84375 24.960938 -31.210938 27.578125 -29.953125 C 30.191406 -28.691406 32.269531 -26.84375 33.8125 -24.40625 C 35.351562 -21.96875 36.125 -19.050781 36.125 -15.65625 Z M 19.03125 -23.03125 C 17.695312 -23.03125 16.59375 -22.664062 15.71875 -21.9375 C 14.84375 -21.21875 14.269531 -20.191406 14 -18.859375 L 24.0625 -18.859375 C 23.789062 -20.160156 23.21875 -21.179688 22.34375 -21.921875 C 21.46875 -22.660156 20.363281 -23.03125 19.03125 -23.03125 Z M 19.03125 -23.03125 "/></g></g></g><g fill="#ffffff" fill-opacity="1"><g transform="translate(212.616812, 56.747071)"><g/></g></g></svg>